C:\Users\r0593348\3dpredictsim\Results\Batchsim_tmt_linear\Pog_s1_tmt_bCst_d02_k2000_ig24_act_GRF.mot
nRows=20
nColumns=19

name C:\Users\r0593348\3dpredictsim\Results\Batchsim_tmt_linear\Pog_s1_tmt_bCst_d02_k2000_ig24_act_GRF.mot
datacolumns 19
datarows 20
range 0.0000000000 0.2236578358
endheader
time 	ground_force_vx	ground_force_vy	ground_force_vz	ground_force_px	ground_force_py	ground_force_pz	1_ground_force_vx	1_ground_force_vy	1_ground_force_vz	1_ground_force_px	1_ground_force_py	1_ground_force_pz	ground_torque_x	ground_torque_y	ground_torque_z	1_ground_torque_x	1_ground_torque_y	1_ground_torque_z
        0.0000000000	      -68.8473343252	       53.1180662095	       17.3221212824	        0.1705944778	        0.0000000000	        0.0502817968	      106.6306006424	      431.0123876826	       -1.9099447729	       -0.3465525640	        0.0000000000	       -0.0353656561	        0.0000000000	        0.0000000000	        0.0000000000	        0.0000000000	        0.0000000000	        0.0000000000	
        0.0117714650	     -133.6017612128	      136.6450109531	       48.7350504667	        0.1790944082	        0.0000000000	        0.0483599459	       74.8027611208	      331.2420235072	       -7.6253233223	       -0.3394967518	        0.0000000000	       -0.0326413120	        0.0000000000	        0.0000000000	        0.0000000000	        0.0000000000	        0.0000000000	        0.0000000000	
        0.0235429301	      -61.4282494930	      302.5310610746	       19.1942106194	        0.1856022741	        0.0000000000	        0.0466072812	       42.0798521319	      223.0022459205	      -13.7655690626	       -0.3270143234	        0.0000000000	       -0.0272935105	        0.0000000000	        0.0000000000	        0.0000000000	        0.0000000000	        0.0000000000	        0.0000000000	
        0.0353143951	      -54.6659431203	      505.2852853519	       -3.5846147724	        0.1908284899	        0.0000000000	        0.0470264550	       26.7207748511	      168.0093203416	      -13.7692860741	       -0.3184262666	        0.0000000000	       -0.0229643370	        0.0000000000	        0.0000000000	        0.0000000000	        0.0000000000	        0.0000000000	        0.0000000000	
        0.0470858602	      -95.9086562393	      732.7764552143	      -14.2946204514	        0.2008216046	        0.0000000000	        0.0494831622	       23.5242672601	      131.7176638842	      -15.5067318447	       -0.3181072179	        0.0000000000	       -0.0231959202	        0.0000000000	        0.0000000000	        0.0000000000	        0.0000000000	        0.0000000000	        0.0000000000	
        0.0588573252	     -122.3387987778	      855.6560415202	      -20.8200959163	        0.2076147841	        0.0000000000	        0.0510500755	       15.1224604833	       86.2377249461	      -14.1948899744	       -0.3177620714	        0.0000000000	       -0.0232837862	        0.0000000000	        0.0000000000	        0.0000000000	        0.0000000000	        0.0000000000	        0.0000000000	
        0.0706287902	     -127.7992556834	      879.1074271783	      -20.8155324627	        0.2120693139	        0.0000000000	        0.0519714471	        0.7890001284	       35.1693649288	       -7.5205717181	       -0.3182578133	        0.0000000000	       -0.0232081610	        0.0000000000	        0.0000000000	        0.0000000000	        0.0000000000	        0.0000000000	        0.0000000000	
        0.0824002553	     -119.7178005865	      860.4906716133	      -20.1385087465	        0.2157767791	        0.0000000000	        0.0524763886	        0.2998731835	       -0.3061635228	        0.0111389065	        0.0000000000	        0.0000000000	        0.0000000000	        0.0000000000	        0.0000000000	        0.0000000000	        0.0000000000	        0.0000000000	        0.0000000000	
        0.0941717203	     -106.2515184581	      824.1001080941	      -19.6288095490	        0.2197230903	        0.0000000000	        0.0526420979	        0.0012644525	       -0.0010323031	       -0.0000728395	        0.0000000000	        0.0000000000	        0.0000000000	        0.0000000000	        0.0000000000	        0.0000000000	        0.0000000000	        0.0000000000	        0.0000000000	
        0.1059431854	      -93.2702363307	      782.9845299925	      -19.1642578487	        0.2242255152	        0.0000000000	        0.0525932324	        0.0014869636	       -0.0010411442	       -0.0001086880	        0.0000000000	        0.0000000000	        0.0000000000	        0.0000000000	        0.0000000000	        0.0000000000	        0.0000000000	        0.0000000000	        0.0000000000	
        0.1177146504	      -83.8112104063	      748.0985161438	      -18.9488634283	        0.2295507061	        0.0000000000	        0.0523474943	        0.0175892073	       -0.0109737685	       -0.0013879702	        0.0000000000	        0.0000000000	        0.0000000000	        0.0000000000	        0.0000000000	        0.0000000000	        0.0000000000	        0.0000000000	        0.0000000000	
        0.1294861154	      -74.4361653507	      717.0762165059	      -18.9614025668	        0.2348926711	        0.0000000000	        0.0520054802	       -0.1218086631	        0.0694626126	        0.0099820965	        0.0000000000	        0.0000000000	        0.0000000000	        0.0000000000	        0.0000000000	        0.0000000000	        0.0000000000	        0.0000000000	        0.0000000000	
        0.1412575805	      -64.8759615621	      687.2321903178	      -19.1867075195	        0.2397802952	        0.0000000000	        0.0517260052	       -0.1263975254	        0.0677196145	        0.0100293303	        0.0000000000	        0.0000000000	        0.0000000000	        0.0000000000	        0.0000000000	        0.0000000000	        0.0000000000	        0.0000000000	        0.0000000000	
        0.1530290455	      -55.8479631830	      661.0015287716	      -19.6019029858	        0.2444106951	        0.0000000000	        0.0515230901	       -0.0737390498	        0.0375372060	        0.0057699385	        0.0000000000	        0.0000000000	        0.0000000000	        0.0000000000	        0.0000000000	        0.0000000000	        0.0000000000	        0.0000000000	        0.0000000000	
        0.1648005106	      -47.7219234716	      639.3166210284	      -20.0279496866	        0.2490000816	        0.0000000000	        0.0513711672	       -0.0478414977	        0.0233444693	        0.0037084972	        0.0000000000	        0.0000000000	        0.0000000000	        0.0000000000	        0.0000000000	        0.0000000000	        0.0000000000	        0.0000000000	        0.0000000000	
        0.1765719756	      -40.4949197687	      621.4932509972	      -20.2535029557	        0.2535867108	        0.0000000000	        0.0512428188	       -0.0382195292	        0.0179943928	        0.0029426443	        0.0000000000	        0.0000000000	        0.0000000000	        0.0000000000	        0.0000000000	        0.0000000000	        0.0000000000	        0.0000000000	        0.0000000000	
        0.1883434407	      -33.6769150332	      608.2378086846	      -20.4146393045	        0.2587555239	        0.0000000000	        0.0510741211	       -0.0379038562	        0.0173090336	        0.0028738270	        0.0000000000	        0.0000000000	        0.0000000000	        0.0000000000	        0.0000000000	        0.0000000000	        0.0000000000	        0.0000000000	        0.0000000000	
        0.2001149057	      -28.4825249031	      599.3658324221	      -20.3861330026	        0.2646762228	        0.0000000000	        0.0508094849	       -0.0457032995	        0.0203172093	        0.0033973035	        0.0000000000	        0.0000000000	        0.0000000000	        0.0000000000	        0.0000000000	        0.0000000000	        0.0000000000	        0.0000000000	        0.0000000000	
        0.2118863707	      -24.2864747501	      593.7785530849	      -19.9641205081	        0.2710381512	        0.0000000000	        0.0504518330	       -0.0652873995	        0.0283100028	        0.0047245964	        0.0000000000	        0.0000000000	        0.0000000000	        0.0000000000	        0.0000000000	        0.0000000000	        0.0000000000	        0.0000000000	        0.0000000000	
        0.2236578358	      -20.8871075835	      590.5250913596	      -19.5121085567	        0.2776724002	        0.0000000000	        0.0500068512	       -0.1057299186	        0.0448072545	        0.0073670065	        0.0000000000	        0.0000000000	        0.0000000000	        0.0000000000	        0.0000000000	        0.0000000000	        0.0000000000	        0.0000000000	        0.0000000000	
